<?xml version="1.0" encoding="us-ascii" standalone="no"?><svg xmlns="http://www.w3.org/2000/svg" xmlns:xlink="http://www.w3.org/1999/xlink" contentStyleType="text/css" height="1384.375px" preserveAspectRatio="none" style="width:5200px;height:1384px;background:#FFFFFF;" version="1.1" viewBox="0 0 5200 1384" width="5200px" zoomAndPan="magnify"><defs><linearGradient id="g1kxqzq7w1e9ot0" x1="0%" x2="100%" y1="0%" y2="100%"><stop offset="0%" stop-color="#FFFFFF"/><stop offset="100%" stop-color="#F5F5DC"/></linearGradient></defs><g><!--class Main--><g id="elem_Main"><rect codeLine="8" fill="url(#g1kxqzq7w1e9ot0)" height="356.1035" id="Main" rx="7.8125" ry="7.8125" style="stroke:#000000;stroke-width:1.5625;" width="925" x="1270.3125" y="21.875"/><rect fill="url(#g1kxqzq7w1e9ot0)" height="100" rx="7.8125" ry="7.8125" style="stroke:url(#g1kxqzq7w1e9ot0);stroke-width:1.5625;" width="925" x="1270.3125" y="21.875"/><rect fill="url(#g1kxqzq7w1e9ot0)" height="7.8125" style="stroke:url(#g1kxqzq7w1e9ot0);stroke-width:1.5625;" width="925" x="1270.3125" y="114.0625"/><rect codeLine="8" fill="none" height="356.1035" id="Main" rx="7.8125" ry="7.8125" style="stroke:#000000;stroke-width:1.5625;" width="925" x="1270.3125" y="21.875"/><ellipse cx="1419.5313" cy="71.875" fill="#ADD1B2" rx="34.375" ry="34.375" style="stroke:#181818;stroke-width:3.125;"/><path d="M1427.2598,91.0721 Q1425.444,92.0059 1423.4467,92.4728 Q1421.4493,92.9398 1419.2444,92.9398 Q1411.4105,92.9398 1407.2861,87.7777 Q1403.1616,82.6157 1403.1616,72.8622 Q1403.1616,63.0829 1407.2861,57.9208 Q1411.4105,52.7588 1419.2444,52.7588 Q1421.4493,52.7588 1423.4726,53.2257 Q1425.4959,53.6926 1427.2598,54.6265 L1427.2598,63.1348 Q1425.2884,61.319 1423.4337,60.4759 Q1421.579,59.6329 1419.6075,59.6329 Q1415.4053,59.6329 1413.2652,62.9662 Q1411.1252,66.2994 1411.1252,72.8622 Q1411.1252,79.3991 1413.2652,82.7324 Q1415.4053,86.0657 1419.6075,86.0657 Q1421.579,86.0657 1423.4337,85.2226 Q1425.2884,84.3796 1427.2598,82.5638 Z " fill="#000000"/><text fill="#000000" font-family="sans-serif" font-size="43.75" lengthAdjust="spacing" textLength="600" x="1483.5938" y="88.4094">main.py {Composition Root}</text><line style="stroke:#000000;stroke-width:1.5625;" x1="1273.4375" x2="2192.1875" y1="121.875" y2="121.875"/><line style="stroke:#000000;stroke-width:1.5625;" x1="1273.4375" x2="2192.1875" y1="146.875" y2="146.875"/><ellipse cx="1304.6875" cy="189.8254" fill="#84BE84" rx="9.375" ry="9.375" style="stroke:#038048;stroke-width:3.125;"/><text fill="#000000" font-family="sans-serif" font-size="43.75" lengthAdjust="spacing" textLength="521.875" x="1332.8125" y="201.6724">configure_app(): FastAPI</text><ellipse cx="1304.6875" cy="241.3513" fill="#84BE84" rx="9.375" ry="9.375" style="stroke:#038048;stroke-width:3.125;"/><text fill="#000000" font-family="sans-serif" font-size="43.75" lengthAdjust="spacing" textLength="753.125" x="1332.8125" y="253.1982">_provide_cart_service(): CartService</text><ellipse cx="1304.6875" cy="292.8772" fill="#84BE84" rx="9.375" ry="9.375" style="stroke:#038048;stroke-width:3.125;"/><text fill="#000000" font-family="sans-serif" font-size="43.75" lengthAdjust="spacing" textLength="781.25" x="1332.8125" y="304.7241">_provide_auth_service(): AuthService</text><ellipse cx="1304.6875" cy="344.4031" fill="#84BE84" rx="9.375" ry="9.375" style="stroke:#038048;stroke-width:3.125;"/><text fill="#000000" font-family="sans-serif" font-size="43.75" lengthAdjust="spacing" textLength="843.75" x="1332.8125" y="356.25">_configure_dependency_overrides(app)</text></g><!--class SSEBroadcaster--><g id="elem_SSEBroadcaster"><rect codeLine="15" fill="url(#g1kxqzq7w1e9ot0)" height="304.5776" id="SSEBroadcaster" rx="7.8125" ry="7.8125" style="stroke:#000000;stroke-width:1.5625;" width="653.125" x="21.875" y="618.625"/><rect fill="url(#g1kxqzq7w1e9ot0)" height="100" rx="7.8125" ry="7.8125" style="stroke:url(#g1kxqzq7w1e9ot0);stroke-width:1.5625;" width="653.125" x="21.875" y="618.625"/><rect fill="url(#g1kxqzq7w1e9ot0)" height="7.8125" style="stroke:url(#g1kxqzq7w1e9ot0);stroke-width:1.5625;" width="653.125" x="21.875" y="710.8125"/><rect codeLine="15" fill="none" height="304.5776" id="SSEBroadcaster" rx="7.8125" ry="7.8125" style="stroke:#000000;stroke-width:1.5625;" width="653.125" x="21.875" y="618.625"/><ellipse cx="171.0938" cy="668.625" fill="#ADD1B2" rx="34.375" ry="34.375" style="stroke:#181818;stroke-width:3.125;"/><path d="M178.8223,687.8221 Q177.0065,688.7559 175.0092,689.2228 Q173.0118,689.6898 170.8069,689.6898 Q162.973,689.6898 158.8486,684.5277 Q154.7241,679.3657 154.7241,669.6122 Q154.7241,659.8329 158.8486,654.6708 Q162.973,649.5088 170.8069,649.5088 Q173.0118,649.5088 175.0351,649.9757 Q177.0584,650.4426 178.8223,651.3765 L178.8223,659.8848 Q176.8509,658.069 174.9962,657.2259 Q173.1415,656.3829 171.17,656.3829 Q166.9678,656.3829 164.8277,659.7162 Q162.6877,663.0494 162.6877,669.6122 Q162.6877,676.1491 164.8277,679.4824 Q166.9678,682.8157 171.17,682.8157 Q173.1415,682.8157 174.9962,681.9726 Q176.8509,681.1296 178.8223,679.3138 Z " fill="#000000"/><text fill="#000000" font-family="sans-serif" font-size="43.75" lengthAdjust="spacing" textLength="328.125" x="235.1563" y="685.1594">SSEBroadcaster</text><line style="stroke:#000000;stroke-width:1.5625;" x1="25" x2="671.875" y1="718.625" y2="718.625"/><rect fill="none" height="18.75" style="stroke:#C82930;stroke-width:3.125;" width="18.75" x="46.875" y="752.2004"/><text fill="#000000" font-family="sans-serif" font-size="43.75" lengthAdjust="spacing" textLength="571.875" x="84.375" y="773.4224">_subs: dict[int, list[Queue]]</text><line style="stroke:#000000;stroke-width:1.5625;" x1="25" x2="671.875" y1="795.1509" y2="795.1509"/><ellipse cx="56.25" cy="838.1013" fill="#84BE84" rx="9.375" ry="9.375" style="stroke:#038048;stroke-width:3.125;"/><text fill="#000000" font-family="sans-serif" font-size="43.75" lengthAdjust="spacing" textLength="546.875" x="84.375" y="849.9482">subscribe(sid: int): Queue</text><ellipse cx="56.25" cy="889.6272" fill="#84BE84" rx="9.375" ry="9.375" style="stroke:#038048;stroke-width:3.125;"/><text fill="#000000" font-family="sans-serif" font-size="43.75" lengthAdjust="spacing" textLength="537.5" x="84.375" y="901.4741">emit(sid, type, data): void</text></g><!--class PostgresAdapter--><g id="elem_PostgresAdapter"><rect codeLine="21" fill="url(#g1kxqzq7w1e9ot0)" height="201.5259" id="PostgresAdapter" rx="7.8125" ry="7.8125" style="stroke:#000000;stroke-width:1.5625;" width="565.625" x="1778.125" y="670.1563"/><rect fill="url(#g1kxqzq7w1e9ot0)" height="100" rx="7.8125" ry="7.8125" style="stroke:url(#g1kxqzq7w1e9ot0);stroke-width:1.5625;" width="565.625" x="1778.125" y="670.1563"/><rect fill="url(#g1kxqzq7w1e9ot0)" height="7.8125" style="stroke:url(#g1kxqzq7w1e9ot0);stroke-width:1.5625;" width="565.625" x="1778.125" y="762.3438"/><rect codeLine="21" fill="none" height="201.5259" id="PostgresAdapter" rx="7.8125" ry="7.8125" style="stroke:#000000;stroke-width:1.5625;" width="565.625" x="1778.125" y="670.1563"/><ellipse cx="1874.2188" cy="720.1563" fill="#ADD1B2" rx="34.375" ry="34.375" style="stroke:#181818;stroke-width:3.125;"/><path d="M1881.9473,739.3533 Q1880.1315,740.2872 1878.1342,740.7541 Q1876.1368,741.221 1873.9319,741.221 Q1866.098,741.221 1861.9736,736.059 Q1857.8491,730.8969 1857.8491,721.1435 Q1857.8491,711.3641 1861.9736,706.2021 Q1866.098,701.04 1873.9319,701.04 Q1876.1368,701.04 1878.1601,701.507 Q1880.1834,701.9739 1881.9473,702.9077 L1881.9473,711.416 Q1879.9759,709.6002 1878.1212,708.7572 Q1876.2665,707.9141 1874.295,707.9141 Q1870.0928,707.9141 1867.9527,711.2474 Q1865.8127,714.5807 1865.8127,721.1435 Q1865.8127,727.6804 1867.9527,731.0136 Q1870.0928,734.3469 1874.295,734.3469 Q1876.2665,734.3469 1878.1212,733.5039 Q1879.9759,732.6608 1881.9473,730.845 Z " fill="#000000"/><text fill="#000000" font-family="sans-serif" font-size="43.75" lengthAdjust="spacing" textLength="356.25" x="1928.9063" y="736.6907">PostgresAdapter</text><line style="stroke:#000000;stroke-width:1.5625;" x1="1781.25" x2="2340.625" y1="770.1563" y2="770.1563"/><rect fill="none" height="18.75" style="stroke:#C82930;stroke-width:3.125;" width="18.75" x="1803.125" y="803.7317"/><text fill="#000000" font-family="sans-serif" font-size="43.75" lengthAdjust="spacing" textLength="484.375" x="1840.625" y="824.9536">_pool: ConnectionPool</text><line style="stroke:#000000;stroke-width:1.5625;" x1="1781.25" x2="2340.625" y1="846.6821" y2="846.6821"/></g><!--class OpenAIAdapter--><g id="elem_OpenAIAdapter"><rect codeLine="25" fill="url(#g1kxqzq7w1e9ot0)" height="201.5259" id="OpenAIAdapter" rx="7.8125" ry="7.8125" style="stroke:#000000;stroke-width:1.5625;" width="528.125" x="1140.625" y="670.1563"/><rect fill="url(#g1kxqzq7w1e9ot0)" height="100" rx="7.8125" ry="7.8125" style="stroke:url(#g1kxqzq7w1e9ot0);stroke-width:1.5625;" width="528.125" x="1140.625" y="670.1563"/><rect fill="url(#g1kxqzq7w1e9ot0)" height="7.8125" style="stroke:url(#g1kxqzq7w1e9ot0);stroke-width:1.5625;" width="528.125" x="1140.625" y="762.3438"/><rect codeLine="25" fill="none" height="201.5259" id="OpenAIAdapter" rx="7.8125" ry="7.8125" style="stroke:#000000;stroke-width:1.5625;" width="528.125" x="1140.625" y="670.1563"/><ellipse cx="1231.0938" cy="720.1563" fill="#ADD1B2" rx="34.375" ry="34.375" style="stroke:#181818;stroke-width:3.125;"/><path d="M1238.8223,739.3533 Q1237.0065,740.2872 1235.0092,740.7541 Q1233.0118,741.221 1230.8069,741.221 Q1222.973,741.221 1218.8486,736.059 Q1214.7241,730.8969 1214.7241,721.1435 Q1214.7241,711.3641 1218.8486,706.2021 Q1222.973,701.04 1230.8069,701.04 Q1233.0118,701.04 1235.0351,701.507 Q1237.0584,701.9739 1238.8223,702.9077 L1238.8223,711.416 Q1236.8509,709.6002 1234.9962,708.7572 Q1233.1415,707.9141 1231.17,707.9141 Q1226.9678,707.9141 1224.8277,711.2474 Q1222.6877,714.5807 1222.6877,721.1435 Q1222.6877,727.6804 1224.8277,731.0136 Q1226.9678,734.3469 1231.17,734.3469 Q1233.1415,734.3469 1234.9962,733.5039 Q1236.8509,732.6608 1238.8223,730.845 Z " fill="#000000"/><text fill="#000000" font-family="sans-serif" font-size="43.75" lengthAdjust="spacing" textLength="331.25" x="1284.5313" y="736.6907">OpenAIAdapter</text><line style="stroke:#000000;stroke-width:1.5625;" x1="1143.75" x2="1665.625" y1="770.1563" y2="770.1563"/><rect fill="none" height="18.75" style="stroke:#C82930;stroke-width:3.125;" width="18.75" x="1165.625" y="803.7317"/><text fill="#000000" font-family="sans-serif" font-size="43.75" lengthAdjust="spacing" textLength="446.875" x="1203.125" y="824.9536">_client: AsyncOpenAI</text><line style="stroke:#000000;stroke-width:1.5625;" x1="1143.75" x2="1665.625" y1="846.6821" y2="846.6821"/></g><!--class CartService--><g id="elem_CartService"><rect codeLine="29" fill="url(#g1kxqzq7w1e9ot0)" height="201.5259" id="CartService" rx="7.8125" ry="7.8125" style="stroke:#000000;stroke-width:1.5625;" width="1153.125" x="2240.625" y="1163.8125"/><rect fill="url(#g1kxqzq7w1e9ot0)" height="100" rx="7.8125" ry="7.8125" style="stroke:url(#g1kxqzq7w1e9ot0);stroke-width:1.5625;" width="1153.125" x="2240.625" y="1163.8125"/><rect fill="url(#g1kxqzq7w1e9ot0)" height="7.8125" style="stroke:url(#g1kxqzq7w1e9ot0);stroke-width:1.5625;" width="1153.125" x="2240.625" y="1256"/><rect codeLine="29" fill="none" height="201.5259" id="CartService" rx="7.8125" ry="7.8125" style="stroke:#000000;stroke-width:1.5625;" width="1153.125" x="2240.625" y="1163.8125"/><ellipse cx="2683.5938" cy="1213.8125" fill="#ADD1B2" rx="34.375" ry="34.375" style="stroke:#181818;stroke-width:3.125;"/><path d="M2691.3223,1233.0096 Q2689.5065,1233.9434 2687.5092,1234.4103 Q2685.5118,1234.8773 2683.3069,1234.8773 Q2675.473,1234.8773 2671.3486,1229.7152 Q2667.2241,1224.5532 2667.2241,1214.7997 Q2667.2241,1205.0204 2671.3486,1199.8583 Q2675.473,1194.6963 2683.3069,1194.6963 Q2685.5118,1194.6963 2687.5351,1195.1632 Q2689.5584,1195.6301 2691.3223,1196.564 L2691.3223,1205.0723 Q2689.3509,1203.2565 2687.4962,1202.4134 Q2685.6415,1201.5704 2683.67,1201.5704 Q2679.4678,1201.5704 2677.3277,1204.9037 Q2675.1877,1208.2369 2675.1877,1214.7997 Q2675.1877,1221.3366 2677.3277,1224.6699 Q2679.4678,1228.0032 2683.67,1228.0032 Q2685.6415,1228.0032 2687.4962,1227.1601 Q2689.3509,1226.3171 2691.3223,1224.5013 Z " fill="#000000"/><text fill="#000000" font-family="sans-serif" font-size="43.75" lengthAdjust="spacing" textLength="240.625" x="2747.6563" y="1230.3469">CartService</text><line style="stroke:#000000;stroke-width:1.5625;" x1="2243.75" x2="3390.625" y1="1263.8125" y2="1263.8125"/><line style="stroke:#000000;stroke-width:1.5625;" x1="2243.75" x2="3390.625" y1="1288.8125" y2="1288.8125"/><ellipse cx="2275" cy="1331.7629" fill="#84BE84" rx="9.375" ry="9.375" style="stroke:#038048;stroke-width:3.125;"/><text fill="#000000" font-family="sans-serif" font-size="43.75" lengthAdjust="spacing" textLength="1071.875" x="2303.125" y="1343.6099">__init__(db: ISessionManager, bc: ISSEBroadcaster)</text></g><!--class AuthService--><g id="elem_AuthService"><rect codeLine="33" fill="url(#g1kxqzq7w1e9ot0)" height="201.5259" id="AuthService" rx="7.8125" ry="7.8125" style="stroke:#000000;stroke-width:1.5625;" width="846.875" x="878.125" y="1163.8125"/><rect fill="url(#g1kxqzq7w1e9ot0)" height="100" rx="7.8125" ry="7.8125" style="stroke:url(#g1kxqzq7w1e9ot0);stroke-width:1.5625;" width="846.875" x="878.125" y="1163.8125"/><rect fill="url(#g1kxqzq7w1e9ot0)" height="7.8125" style="stroke:url(#g1kxqzq7w1e9ot0);stroke-width:1.5625;" width="846.875" x="878.125" y="1256"/><rect codeLine="33" fill="none" height="201.5259" id="AuthService" rx="7.8125" ry="7.8125" style="stroke:#000000;stroke-width:1.5625;" width="846.875" x="878.125" y="1163.8125"/><ellipse cx="1161.7188" cy="1213.8125" fill="#ADD1B2" rx="34.375" ry="34.375" style="stroke:#181818;stroke-width:3.125;"/><path d="M1169.4473,1233.0096 Q1167.6315,1233.9434 1165.6342,1234.4103 Q1163.6368,1234.8773 1161.4319,1234.8773 Q1153.598,1234.8773 1149.4736,1229.7152 Q1145.3491,1224.5532 1145.3491,1214.7997 Q1145.3491,1205.0204 1149.4736,1199.8583 Q1153.598,1194.6963 1161.4319,1194.6963 Q1163.6368,1194.6963 1165.6601,1195.1632 Q1167.6834,1195.6301 1169.4473,1196.564 L1169.4473,1205.0723 Q1167.4759,1203.2565 1165.6212,1202.4134 Q1163.7665,1201.5704 1161.795,1201.5704 Q1157.5928,1201.5704 1155.4527,1204.9037 Q1153.3127,1208.2369 1153.3127,1214.7997 Q1153.3127,1221.3366 1155.4527,1224.6699 Q1157.5928,1228.0032 1161.795,1228.0032 Q1163.7665,1228.0032 1165.6212,1227.1601 Q1167.4759,1226.3171 1169.4473,1224.5013 Z " fill="#000000"/><text fill="#000000" font-family="sans-serif" font-size="43.75" lengthAdjust="spacing" textLength="253.125" x="1225.7813" y="1230.3469">AuthService</text><line style="stroke:#000000;stroke-width:1.5625;" x1="881.25" x2="1721.875" y1="1263.8125" y2="1263.8125"/><line style="stroke:#000000;stroke-width:1.5625;" x1="881.25" x2="1721.875" y1="1288.8125" y2="1288.8125"/><ellipse cx="912.5" cy="1331.7629" fill="#84BE84" rx="9.375" ry="9.375" style="stroke:#038048;stroke-width:3.125;"/><text fill="#000000" font-family="sans-serif" font-size="43.75" lengthAdjust="spacing" textLength="765.625" x="940.625" y="1343.6099">__init__(user_repo: IUserRepository)</text></g><!--class ConversationService--><g id="elem_ConversationService"><rect codeLine="37" fill="url(#g1kxqzq7w1e9ot0)" height="201.5259" id="ConversationService" rx="7.8125" ry="7.8125" style="stroke:#000000;stroke-width:1.5625;" width="1421.875" x="3290.625" y="670.1563"/><rect fill="url(#g1kxqzq7w1e9ot0)" height="100" rx="7.8125" ry="7.8125" style="stroke:url(#g1kxqzq7w1e9ot0);stroke-width:1.5625;" width="1421.875" x="3290.625" y="670.1563"/><rect fill="url(#g1kxqzq7w1e9ot0)" height="7.8125" style="stroke:url(#g1kxqzq7w1e9ot0);stroke-width:1.5625;" width="1421.875" x="3290.625" y="762.3438"/><rect codeLine="37" fill="none" height="201.5259" id="ConversationService" rx="7.8125" ry="7.8125" style="stroke:#000000;stroke-width:1.5625;" width="1421.875" x="3290.625" y="670.1563"/><ellipse cx="3771.0938" cy="720.1563" fill="#ADD1B2" rx="34.375" ry="34.375" style="stroke:#181818;stroke-width:3.125;"/><path d="M3778.8223,739.3533 Q3777.0065,740.2872 3775.0092,740.7541 Q3773.0118,741.221 3770.8069,741.221 Q3762.973,741.221 3758.8486,736.059 Q3754.7241,730.8969 3754.7241,721.1435 Q3754.7241,711.3641 3758.8486,706.2021 Q3762.973,701.04 3770.8069,701.04 Q3773.0118,701.04 3775.0351,701.507 Q3777.0584,701.9739 3778.8223,702.9077 L3778.8223,711.416 Q3776.8509,709.6002 3774.9962,708.7572 Q3773.1415,707.9141 3771.17,707.9141 Q3766.9678,707.9141 3764.8277,711.2474 Q3762.6877,714.5807 3762.6877,721.1435 Q3762.6877,727.6804 3764.8277,731.0136 Q3766.9678,734.3469 3771.17,734.3469 Q3773.1415,734.3469 3774.9962,733.5039 Q3776.8509,732.6608 3778.8223,730.845 Z " fill="#000000"/><text fill="#000000" font-family="sans-serif" font-size="43.75" lengthAdjust="spacing" textLength="434.375" x="3835.1563" y="736.6907">ConversationService</text><line style="stroke:#000000;stroke-width:1.5625;" x1="3293.75" x2="4709.375" y1="770.1563" y2="770.1563"/><line style="stroke:#000000;stroke-width:1.5625;" x1="3293.75" x2="4709.375" y1="795.1563" y2="795.1563"/><ellipse cx="3325" cy="838.1067" fill="#84BE84" rx="9.375" ry="9.375" style="stroke:#038048;stroke-width:3.125;"/><text fill="#000000" font-family="sans-serif" font-size="43.75" lengthAdjust="spacing" textLength="1340.625" x="3353.125" y="849.9536">__init__(db: ISessionManager, ai: IAIClient, bc: ISSEBroadcaster)</text></g><!--class FakeSessionManager--><g id="elem_FakeSessionManager"><rect codeLine="41" fill="url(#g1kxqzq7w1e9ot0)" height="304.5776" id="FakeSessionManager" rx="7.8125" ry="7.8125" style="stroke:#000000;stroke-width:1.5625;" width="728.125" x="2453.125" y="618.625"/><rect fill="url(#g1kxqzq7w1e9ot0)" height="100" rx="7.8125" ry="7.8125" style="stroke:url(#g1kxqzq7w1e9ot0);stroke-width:1.5625;" width="728.125" x="2453.125" y="618.625"/><rect fill="url(#g1kxqzq7w1e9ot0)" height="7.8125" style="stroke:url(#g1kxqzq7w1e9ot0);stroke-width:1.5625;" width="728.125" x="2453.125" y="710.8125"/><rect codeLine="41" fill="none" height="304.5776" id="FakeSessionManager" rx="7.8125" ry="7.8125" style="stroke:#000000;stroke-width:1.5625;" width="728.125" x="2453.125" y="618.625"/><ellipse cx="2580.1563" cy="668.625" fill="#ADD1B2" rx="34.375" ry="34.375" style="stroke:#181818;stroke-width:3.125;"/><path d="M2587.8848,687.8221 Q2586.069,688.7559 2584.0717,689.2228 Q2582.0743,689.6898 2579.8694,689.6898 Q2572.0355,689.6898 2567.9111,684.5277 Q2563.7866,679.3657 2563.7866,669.6122 Q2563.7866,659.8329 2567.9111,654.6708 Q2572.0355,649.5088 2579.8694,649.5088 Q2582.0743,649.5088 2584.0976,649.9757 Q2586.1209,650.4426 2587.8848,651.3765 L2587.8848,659.8848 Q2585.9134,658.069 2584.0587,657.2259 Q2582.204,656.3829 2580.2325,656.3829 Q2576.0303,656.3829 2573.8902,659.7162 Q2571.7502,663.0494 2571.7502,669.6122 Q2571.7502,676.1491 2573.8902,679.4824 Q2576.0303,682.8157 2580.2325,682.8157 Q2582.204,682.8157 2584.0587,681.9726 Q2585.9134,681.1296 2587.8848,679.3138 Z " fill="#000000"/><text fill="#000000" font-family="sans-serif" font-size="43.75" lengthAdjust="spacing" textLength="450" x="2641.7188" y="685.1594">FakeSessionManager</text><line style="stroke:#000000;stroke-width:1.5625;" x1="2456.25" x2="3178.125" y1="718.625" y2="718.625"/><rect fill="none" height="18.75" style="stroke:#C82930;stroke-width:3.125;" width="18.75" x="2478.125" y="752.2004"/><text fill="#000000" font-family="sans-serif" font-size="43.75" lengthAdjust="spacing" textLength="218.75" x="2515.625" y="773.4224">_data: dict</text><line style="stroke:#000000;stroke-width:1.5625;" x1="2456.25" x2="3178.125" y1="795.1509" y2="795.1509"/><ellipse cx="2487.5" cy="838.1013" fill="#84BE84" rx="9.375" ry="9.375" style="stroke:#038048;stroke-width:3.125;"/><text fill="#000000" font-family="sans-serif" font-size="43.75" lengthAdjust="spacing" textLength="353.125" x="2515.625" y="849.9482">get_cart(sid): list</text><ellipse cx="2487.5" cy="889.6272" fill="#84BE84" rx="9.375" ry="9.375" style="stroke:#038048;stroke-width:3.125;"/><text fill="#000000" font-family="sans-serif" font-size="43.75" lengthAdjust="spacing" textLength="646.875" x="2515.625" y="901.4741">update_cart_item(id, qty): void</text></g><!--link Main to PostgresAdapter--><g id="link_Main_PostgresAdapter"><path codeLine="47" d="M1834.8438,378.6563 C1890.3438,474.1563 1947.5179,572.5691 1994.0179,652.6004 " fill="none" id="Main-to-PostgresAdapter" style="stroke:#181818;stroke-width:3.125;stroke-dasharray:7.0,7.0;"/><polygon fill="#181818" points="2003.4375,668.8125,2000.1162,638.2146,1995.5878,655.3024,1978.5,650.7741,2003.4375,668.8125" style="stroke:#181818;stroke-width:3.125;"/><text fill="#000000" font-family="sans-serif" font-size="40.625" lengthAdjust="spacing" textLength="162.5" x="1919.6563" y="514.1511">&#171;create&#187;</text></g><!--link Main to OpenAIAdapter--><g id="link_Main_OpenAIAdapter"><path codeLine="48" d="M1630.7813,378.6563 C1575.2813,474.1563 1518.1071,572.5691 1471.6071,652.6004 " fill="none" id="Main-to-OpenAIAdapter" style="stroke:#181818;stroke-width:3.125;stroke-dasharray:7.0,7.0;"/><polygon fill="#181818" points="1462.1875,668.8125,1487.125,650.7741,1470.0372,655.3024,1465.5088,638.2146,1462.1875,668.8125" style="stroke:#181818;stroke-width:3.125;"/><text fill="#000000" font-family="sans-serif" font-size="40.625" lengthAdjust="spacing" textLength="162.5" x="1571.875" y="514.1511">&#171;create&#187;</text></g><!--link Main to SSEBroadcaster--><g id="link_Main_SSEBroadcaster"><path codeLine="49" d="M1269.125,260.7188 C1068,299.75 835.5,364.5938 645.3125,471.75 C579.375,508.9063 530.7912,551.0093 481.1662,604.1968 " fill="none" id="Main-to-SSEBroadcaster" style="stroke:#181818;stroke-width:3.125;stroke-dasharray:7.0,7.0;"/><polygon fill="#181818" points="468.375,617.9063,496.7014,605.8696,479.0343,606.4817,478.4221,588.8147,468.375,617.9063" style="stroke:#181818;stroke-width:3.125;"/><text fill="#000000" font-family="sans-serif" font-size="40.625" lengthAdjust="spacing" textLength="162.5" x="648.4375" y="514.1511">&#171;create&#187;</text></g><!--link Main to CartService--><g id="link_Main_CartService"><path codeLine="51" d="M2196.7813,233.4375 C3004.875,291.125 4600.875,427.9688 4767.1875,618.625 C5178.75,1090.375 4126.5734,1216.5328 3413.5734,1249.7828 " fill="none" id="Main-to-CartService" style="stroke:#181818;stroke-width:3.125;stroke-dasharray:7.0,7.0;"/><polygon fill="#181818" points="3394.8437,1250.6563,3423.5205,1261.8325,3410.4518,1249.9284,3422.3559,1236.8597,3394.8437,1250.6563" style="stroke:#181818;stroke-width:3.125;"/><text fill="#000000" font-family="sans-serif" font-size="40.625" lengthAdjust="spacing" textLength="131.25" x="4861.5" y="786.7449">injects</text></g><!--link Main to AuthService--><g id="link_Main_AuthService"><path codeLine="52" d="M1269.5625,346.625 C1143.4063,409.3125 1021.5625,497.1563 948.4375,618.625 C878.625,734.5938 895.2813,798.6875 948.4375,923.1875 C989.9375,1020.4063 1059.8094,1091.5305 1135.8094,1150.8118 " fill="none" id="Main-to-AuthService" style="stroke:#181818;stroke-width:3.125;stroke-dasharray:7.0,7.0;"/><polygon fill="#181818" points="1150.5938,1162.3438,1136.1053,1135.1896,1138.2735,1152.7338,1120.7293,1154.902,1150.5938,1162.3438" style="stroke:#181818;stroke-width:3.125;"/><text fill="#000000" font-family="sans-serif" font-size="40.625" lengthAdjust="spacing" textLength="131.25" x="951.5625" y="786.7449">injects</text></g><!--link Main to ConversationService--><g id="link_Main_ConversationService"><path codeLine="53" d="M2196.0313,318.375 C2610.0938,421.4375 3192.2737,566.3472 3585.2112,664.1285 " fill="none" id="Main-to-ConversationService" style="stroke:#181818;stroke-width:3.125;stroke-dasharray:7.0,7.0;"/><polygon fill="#181818" points="3603.4062,668.6563,3579.1321,649.7345,3588.2437,664.8831,3573.0951,673.9946,3603.4062,668.6563" style="stroke:#181818;stroke-width:3.125;"/><text fill="#000000" font-family="sans-serif" font-size="40.625" lengthAdjust="spacing" textLength="131.25" x="3006.1563" y="514.1511">injects</text></g><!--link PostgresAdapter to CartService--><g id="link_PostgresAdapter_CartService"><path codeLine="55" d="M2159.1875,872.8438 C2224.1875,934.6563 2313.375,1013.0938 2401.5625,1070.0625 C2454.2813,1104.125 2497.059,1127.406 2554.4965,1154.3747 " fill="none" id="PostgresAdapter-to-CartService" style="stroke:#181818;stroke-width:3.125;"/><polygon fill="#181818" points="2571.4688,1162.3438,2551.3231,1139.0754,2557.3252,1155.7029,2540.6977,1161.7051,2571.4688,1162.3438" style="stroke:#181818;stroke-width:3.125;"/><text fill="#000000" font-family="sans-serif" font-size="40.625" lengthAdjust="spacing" textLength="384.375" x="2404.6875" y="1059.3386">as ISessionManager</text></g><!--link PostgresAdapter to AuthService--><g id="link_PostgresAdapter_AuthService"><path codeLine="56" d="M1907.2813,872.6563 C1775.5312,957.2188 1602.4664,1068.3089 1470.7789,1152.8401 " fill="none" id="PostgresAdapter-to-AuthService" style="stroke:#181818;stroke-width:3.125;"/><polygon fill="#181818" points="1455,1162.9688,1485.4208,1158.2951,1468.1491,1154.5282,1471.916,1137.2566,1455,1162.9688" style="stroke:#181818;stroke-width:3.125;"/><text fill="#000000" font-family="sans-serif" font-size="40.625" lengthAdjust="spacing" textLength="365.625" x="1684.375" y="1059.3386">as IUserRepository</text></g><!--link FakeSessionManager to CartService--><g id="link_FakeSessionManager_CartService"><path codeLine="59" d="M2817.1875,924.25 C2817.1875,1002 2817.1875,1076 2817.1875,1144.5 " fill="none" id="FakeSessionManager-to-CartService" style="stroke:#181818;stroke-width:3.125;stroke-dasharray:7.0,7.0;"/><polygon fill="#181818" points="2817.1875,1163.25,2829.6875,1135.125,2817.1875,1147.625,2804.6875,1135.125,2817.1875,1163.25" style="stroke:#181818;stroke-width:3.125;"/><text fill="#000000" font-family="sans-serif" font-size="40.625" lengthAdjust="spacing" textLength="321.875" x="2820.3125" y="1059.3386">replaces in tests</text></g><!--SRC=[bPHDQnin48Rl-ok6NEfGsmtjpGI3RHhm8JIDAJs4iCZIPArwLr8rMiCIyjyxafFiXmrjRvRcUJKVxwnfhuqJNbHGMMFbpjiAuKcKX1czXsGfY9P2xWjlQwDMjhGUVkvqm4zBrCKfQhr2VyIM9UiwW78QlbnTTIMsSjQW2PlGb0XrLNxEilGEN5H2cwbhu7aL8T91MmFtreQN2n04jno6vmpW8xzYddHHUyo5SwFB6Tm82ekxTGhcpjk3LfXBuKDEw0zQOeHMVDuSZtrGr67N1HTyxe5jFeKEZK8ZczmUq7kMquYBkCnUtlhORBuklHLASateKyKJoAdUqWoKbk51cp26KbDu-5vZZO-FAKa4fDTR795MCs28Aqb02cEbGuoC8JGEnw1440mSh5PjwZjBeV182oLS9xUpjkJshJ4eur3l-DoAld57Y_L08alD9l4eg37oIBIApY1V3SbpRNJ8yv7Qpc2zGI9ESokCAD2FOIlZPMyidNbrfZryhMPJSe_Eilu7_xx7j1VMDnqzzyLEa8YT_KzLGlFbOhrAdVwjo1knn_u3RvEAHXoDJJaB36dnebViJxGvtTUEmTUTv6-f6aKhVuUcus5QyEbqVcBZ3AwlfKVMp-SjrVVjF3FOnHxKKbq_u-RzuZMXDjmrw4putFnRB1isCvaC4_AtFJ3dhAXVHXJrLoBxC5JzGtLdV3sT26yW_x4XiGm24kl-0000]--></g></svg>